<svg xmlns="http://www.w3.org/2000/svg" width="1200" height="675" viewBox="0 0 1200 675"><defs><linearGradient id="bg" x2="1" y2="1"><stop stop-color="#111d37"/><stop offset="1" stop-color="#344b78"/></linearGradient></defs><rect width="1200" height="675" rx="28" fill="url(#bg)"/><rect x="665" y="136" width="420" height="390" rx="24" fill="#192844" stroke="#60749b" stroke-width="4"/><g font-family="Arial,sans-serif"><text x="95" y="145" fill="#f7a928" font-size="25" font-weight="700" letter-spacing="5">BYBIT • ORDER TYPES</text><text x="95" y="255" fill="#fff" font-size="58" font-weight="700">订单类型怎么选？</text><text x="98" y="322" fill="#c1cee2" font-size="29">市价、限价、条件单与执行控制</text><rect x="95" y="398" width="300" height="62" rx="31" fill="#70d6b5"/><text x="245" y="439" text-anchor="middle" fill="#17243b" font-size="23" font-weight="700">先理解，再下单</text></g><g font-family="Arial,sans-serif"><rect x="710" y="180" width="330" height="76" rx="14" fill="#263958"/><circle cx="750" cy="218" r="17" fill="#f7a928"/><text x="785" y="226" fill="#fff" font-size="25" font-weight="700">市价单</text><text x="995" y="225" text-anchor="end" fill="#c1cee2" font-size="18">快速成交</text><rect x="710" y="282" width="330" height="76" rx="14" fill="#263958"/><circle cx="750" cy="320" r="17" fill="#70d6b5"/><text x="785" y="328" fill="#fff" font-size="25" font-weight="700">限价单</text><text x="995" y="327" text-anchor="end" fill="#c1cee2" font-size="18">控制价格</text><rect x="710" y="384" width="330" height="76" rx="14" fill="#263958"/><circle cx="750" cy="422" r="17" fill="#91a9ff"/><text x="785" y="430" fill="#fff" font-size="25" font-weight="700">条件单</text><text x="995" y="429" text-anchor="end" fill="#c1cee2" font-size="18">满足条件再触发</text><path d="M690 218h-34v204h34" fill="none" stroke="#70d6b5" stroke-width="4" stroke-linecap="round"/></g><text x="95" y="587" fill="#a9b8d1" font-family="Arial,sans-serif" font-size="20">速度与价格控制各有取舍；触发不代表保证成交。</text></svg>