<svg xmlns="http://www.w3.org/2000/svg" viewBox="0 0 1200 760" role="img" aria-labelledby="title desc"><title id="title">比特币 ETF 与直接持币有什么不同？：主题图解</title><desc id="desc">价格敞口相似，权利和保管不同，包括证券账户、基金结构、链上密钥。</desc><rect width="1200" height="760" rx="26" fill="#f1f0e8"/><path d="M935 0h265v200c-120-78-198-83-294-58z" fill="#e4e9dc"/><text x="72" y="68" fill="#536b48" font-family="Arial,sans-serif" font-size="17" letter-spacing="3">知页 · 知识分享</text><text x="72" y="133" fill="#30452f" font-family="'Songti SC','Noto Serif CJK SC',serif" font-size="46" font-weight="700">ETF 与直接持币</text><path d="M72 158h160" stroke="#c7794b" stroke-width="5" stroke-linecap="round"/><text x="72" y="195" fill="#777a70" font-family="'PingFang SC','Microsoft YaHei',sans-serif" font-size="21">价格敞口相似，权利和保管不同</text><path d="M100 520h1000" stroke="#b7bdab" stroke-width="3"/><rect x="130" y="438" width="250" height="82" rx="16" fill="#e4e9dc" stroke="#b7bdab" stroke-width="2"/><circle cx="172" cy="480" r="22" fill="#536b48"/><text x="172" y="488" text-anchor="middle" fill="#fffefa" font-family="Arial,sans-serif" font-size="18" font-weight="700">01</text><text x="160" y="545" fill="#30452f" font-family="'PingFang SC','Microsoft YaHei',sans-serif" font-size="24" font-weight="700">证券账户</text><path d="M160 573h108" stroke="#c7794b" stroke-width="4" stroke-linecap="round"/><rect x="460" y="352" width="250" height="168" rx="16" fill="#fffefa" stroke="#b7bdab" stroke-width="2"/><circle cx="502" cy="394" r="22" fill="#30452f"/><text x="502" y="402" text-anchor="middle" fill="#fffefa" font-family="Arial,sans-serif" font-size="18" font-weight="700">02</text><text x="490" y="459" fill="#30452f" font-family="'PingFang SC','Microsoft YaHei',sans-serif" font-size="24" font-weight="700">基金结构</text><path d="M490 487h108" stroke="#536b48" stroke-width="4" stroke-linecap="round"/><rect x="790" y="266" width="250" height="254" rx="16" fill="#ead6c7" stroke="#b7bdab" stroke-width="2"/><circle cx="832" cy="308" r="22" fill="#c7794b"/><text x="832" y="316" text-anchor="middle" fill="#fffefa" font-family="Arial,sans-serif" font-size="18" font-weight="700">03</text><text x="820" y="373" fill="#30452f" font-family="'PingFang SC','Microsoft YaHei',sans-serif" font-size="24" font-weight="700">链上密钥</text><path d="M820 401h108" stroke="#c7794b" stroke-width="4" stroke-linecap="round"/><path d="M430 370l22-18m286-66 22-18" stroke="#c7794b" stroke-width="4" stroke-linecap="round"/><text x="72" y="688" fill="#777a70" font-family="Arial,sans-serif" font-size="16" letter-spacing="2">一页一知 · 把复杂的问题讲清楚</text><text x="1128" y="688" text-anchor="end" fill="#777a70" font-family="Arial,sans-serif" font-size="15" letter-spacing="2">FIG. 27 / KNOWLEDGE</text></svg>