<svg xmlns="http://www.w3.org/2000/svg" width="1200" height="675" viewBox="0 0 1200 675"><rect width="1200" height="675" fill="#f2f0e8"/><circle cx="970" cy="120" r="240" fill="#dce7dc"/><circle cx="1030" cy="560" r="290" fill="#e9ddca"/><rect x="92" y="83" width="690" height="510" rx="30" fill="#fbfaf6" stroke="#d9d8cb" stroke-width="3"/><text x="145" y="160" font-family="sans-serif" font-size="26" letter-spacing="4" fill="#637365">WEB3 · ACCOUNT GUIDE</text><text x="145" y="270" font-family="sans-serif" font-size="64" font-weight="700" fill="#28382d">Bybit Alpha</text><text x="145" y="350" font-family="sans-serif" font-size="35" fill="#526456">账户交易 · 链上风险</text><path d="M150 420h530" stroke="#d2d6c8" stroke-width="3"/><text x="150" y="475" font-family="sans-serif" font-size="25" fill="#68796b">理解报价、费用与每次确认</text><g transform="translate(840 215)"><rect width="245" height="300" rx="32" fill="#fbfaf6" stroke="#778778" stroke-width="4"/><rect x="24" y="34" width="197" height="67" rx="16" fill="#e5ecdf"/><text x="47" y="78" font-family="sans-serif" font-size="26" fill="#425447">UTA</text><path d="M122 115v40m0 0-47 43m47-43 47 43" fill="none" stroke="#829485" stroke-width="5"/><rect x="20" y="210" width="88" height="60" rx="14" fill="#ede6d6"/><rect x="138" y="210" width="88" height="60" rx="14" fill="#dce7dc"/><text x="31" y="249" font-family="sans-serif" font-size="18" fill="#635b4b">确认</text><text x="149" y="249" font-family="sans-serif" font-size="18" fill="#425447">链上</text></g><text x="95" y="635" font-family="sans-serif" font-size="18" fill="#849083">知页 · 数字资产基础知识</text></svg>